<svg width="32" height="32" viewBox="0 0 32 32" fill="none" xmlns="http://www.w3.org/2000/svg">
<g clip-path="url(#clip0_29_89)">
<path d="M16.0005 -0.000980377C24.8373 -0.000980377 32.001 7.16268 32.001 15.9995C32.001 24.8363 24.8373 32 16.0005 32C7.16366 32 0 24.8363 0 15.9995C0 7.16268 7.16366 -0.000980377 16.0005 -0.000980377Z" fill="black"/>
<path d="M20.5835 5.99988H11.4175C8.43021 5.99988 6.00092 8.42917 6.00092 11.4164V20.5834C6.00092 23.5707 8.43118 26 11.4175 26H20.5835C23.5708 26 26.0001 23.5707 26.0001 20.5834V11.4164C26.0001 8.42917 23.5708 5.99988 20.5835 5.99988ZM11.4165 24.3329C9.34876 24.3329 7.66604 22.6502 7.66604 20.5825V11.4155C7.66604 9.34773 9.34779 7.66501 11.4165 7.66501H20.5825C22.6503 7.66501 24.333 9.34675 24.333 11.4155V20.5825C24.333 22.6502 22.6503 24.3329 20.5825 24.3329H11.4165Z" fill="white"/>
<path d="M16.0005 11.0002C13.2438 11.0002 11.0002 13.2438 11.0002 16.0005C11.0002 18.7571 13.2438 21.0007 16.0005 21.0007C18.7571 21.0007 21.0007 18.7581 21.0007 16.0005C21.0007 13.2428 18.7581 11.0002 16.0005 11.0002ZM16.0005 19.3327C14.1624 19.3327 12.6673 17.8376 12.6673 15.9995C12.6673 14.1614 14.1624 12.6663 16.0005 12.6663C17.8386 12.6663 19.3336 14.1614 19.3336 15.9995C19.3336 17.8376 17.8386 19.3327 16.0005 19.3327Z" fill="white"/>
<path d="M21.3125 22.4576C21.9447 22.4576 22.4578 21.9446 22.4578 21.3114C22.4578 20.6782 21.9447 20.1661 21.3125 20.1661C20.6803 20.1661 20.1663 20.6792 20.1663 21.3114C20.1663 21.9436 20.6793 22.4576 21.3125 22.4576Z" fill="white"/>
</g>
<defs>
<clipPath id="clip0_29_89">
<rect width="32" height="32" fill="white" transform="matrix(1 0 0 -1 0 32)"/>
</clipPath>
</defs>
</svg>
