<svg width="32" height="32" viewBox="0 0 32 32" fill="none" xmlns="http://www.w3.org/2000/svg">
<g clip-path="url(#clip0_29_95)">
<path d="M27.3148 27.3145C33.5634 21.066 33.5634 10.935 27.3148 4.68644C21.0663 -1.56214 10.9353 -1.56214 4.68673 4.68644C-1.56184 10.935 -1.56184 21.066 4.68673 27.3145C10.9353 33.5631 21.0663 33.5631 27.3148 27.3145Z" fill="black"/>
<path d="M11.0305 23.9842H7.29664V11.9833H11.0305V23.9842ZM9.16405 10.3426C7.96601 10.3426 6.99957 9.37324 6.99957 8.17912C6.99957 6.985 7.96504 6.0166 9.16405 6.0166C10.3631 6.0166 11.3256 6.98597 11.3256 8.17912C11.3256 9.37324 10.3572 10.3426 9.16405 10.3426ZM25.0004 23.9842H21.2704V18.1484C21.2704 16.7569 21.246 14.9667 19.3327 14.9667C17.4193 14.9667 17.0959 16.4833 17.0959 18.0487V23.9842H13.3699V11.9833H16.9454V13.624H16.9962C17.4936 12.6801 18.7102 11.6863 20.5258 11.6863C24.3017 11.6863 24.9994 14.1703 24.9994 17.4038V23.9851L25.0004 23.9842Z" fill="white"/>
</g>
<defs>
<clipPath id="clip0_29_95">
<rect width="32" height="32" fill="white"/>
</clipPath>
</defs>
</svg>
