<svg width="248" height="152" viewBox="0 0 248 152" fill="none" xmlns="http://www.w3.org/2000/svg">
<g clip-path="url(#clip0_66_467)">
<path d="M213.569 87.0399L69.2839 139.042L73.9156 151.893L218.2 99.8907L213.569 87.0399Z" fill="#231916"/>
<path d="M196.915 92.9276L194.92 93.645L199.603 106.668L201.598 105.951L196.915 92.9276Z" fill="white"/>
<path d="M44.1899 123.48C7.87995 123.48 0.509949 103.55 0.109949 102.41C-0.270051 101.3 0.31995 100.09 1.43995 99.71C2.54995 99.33 3.74995 99.92 4.13995 101.02C4.25995 101.36 17.2 134.97 94.9699 109.69C126.51 99.43 152.77 88.11 173.87 79C207.5 64.5 229.72 54.91 242.93 63.01C246.93 65.46 247.64 68.46 247.54 70.54C246.98 81.54 220.96 94.4 218 95.83C216.94 96.34 215.67 95.9 215.16 94.84C214.65 93.78 215.09 92.51 216.15 92C226.47 87.02 242.97 76.73 243.29 70.33C243.33 69.46 243.11 68.12 240.71 66.65C229.39 59.7 207.97 68.94 175.57 82.92C154.39 92.06 128.03 103.43 96.2999 113.75C74.42 120.87 57.3999 123.5 44.2099 123.5L44.1899 123.48Z" fill="black"/>
<path d="M5.43997 126.56C5.43997 126.56 5.39997 126.56 5.37997 126.56C4.20997 126.53 3.27997 125.56 3.31997 124.38C3.62997 112.76 8.80997 102.79 19.61 93.64C19.19 93.22 18.78 92.78 18.37 92.34C5.85997 78.79 8.67997 69.16 11.48 64.63C17.1 55.52 31.89 51.38 45.15 55.2C52.87 57.43 58.78 61.83 62.52 67.94C75.78 58.75 88.45 46.57 96.79 35.22C90.24 18.2 91.77 5.83997 97.44 1.77997C100.42 -0.350027 104.14 0.229973 107.14 3.31997C110.43 6.69997 111.57 11.29 110.54 16.97C109.49 22.73 106.27 29.23 101.63 35.88C102.49 37.95 103.49 40.11 104.62 42.34C117.39 67.45 105.7 87.7 90.5 98.27C72.18 111.02 43.21 114.13 22.77 96.58C10.11 107.12 7.76997 116.69 7.56997 124.49C7.53997 125.64 6.59997 126.56 5.44997 126.56H5.43997ZM26.17 93.91C44.96 109.44 71.31 106.45 88.06 94.79C101.79 85.24 112.35 66.95 100.82 44.26C100.06 42.76 99.35 41.28 98.7 39.83C89.77 51.38 77.05 63.01 64.44 71.7C66.27 75.98 67.2 80.91 67.16 86.36C67.15 87.53 66.2 88.46 65.04 88.46H65.02C63.85 88.45 62.91 87.49 62.92 86.32C62.96 81.45 62.15 77.43 60.83 74.11C56.49 76.91 52.2 79.32 48.14 81.22C38.88 85.55 31.71 89.79 26.17 93.89V93.91ZM35.04 58.04C26.51 58.04 18.49 61.34 15.08 66.86C11.34 72.91 13.62 80.94 21.48 89.46C21.96 89.98 22.45 90.48 22.94 90.97C29.15 86.28 36.92 81.79 46.35 77.38C50.49 75.44 54.73 73.05 58.94 70.33C54.57 63.21 47.68 60.35 43.97 59.28C41.05 58.44 38.01 58.04 35.04 58.04ZM101.28 4.76997C100.83 4.76997 100.36 4.90997 99.9 5.23997C96.56 7.63997 94.99 16.97 99.75 30.95C103.23 25.58 105.57 20.53 106.36 16.22C107.14 11.96 106.38 8.61997 104.1 6.28997C103.36 5.52997 102.35 4.76997 101.29 4.76997H101.28Z" fill="black"/>
<path d="M111.08 95.08C109.15 95.08 108.15 94.07 107.7 93.39C104.43 88.52 114.08 71.25 121.36 59.57C119.29 60.02 117.22 59.98 115.34 59.39C114.22 59.04 113.6 57.85 113.95 56.73C114.3 55.61 115.49 54.99 116.61 55.34C119.38 56.21 123.07 55.08 126 52.47C126.79 51.76 127.99 51.75 128.8 52.45C129.6 53.15 129.77 54.33 129.18 55.22C118.46 71.5 110.38 87.52 111.17 90.83C111.26 90.83 111.38 90.81 111.53 90.78C114.93 90.11 124.15 76.94 133.83 58.85C139.8 28.36 145.15 5.28998 152.2 0.859981C153.5 0.0399806 154.9 -0.200019 156.27 0.159981C157.74 0.549981 159.46 1.86998 159.33 5.96998C159.03 15.31 148.97 39.54 137.86 60.37C137.42 62.63 137 64.79 136.61 66.83C136.28 68.54 135.96 70.19 135.65 71.8L169.28 4.16998C169.8 3.11998 171.07 2.68998 172.12 3.20998C173.17 3.72998 173.6 5.00998 173.08 6.04998L132.1 88.43C131.62 89.4 130.49 89.85 129.47 89.48C128.45 89.11 127.88 88.03 128.14 86.99C129.05 83.24 130.09 78.09 131.26 72.11C123.78 84.68 116.61 94.12 112.35 94.96C111.89 95.05 111.47 95.09 111.09 95.09L111.08 95.08ZM154.95 4.24998C154.83 4.25998 154.67 4.31998 154.44 4.45998C149.8 7.37998 144.96 26.1 141.04 44.54C142.96 40.51 144.84 36.36 146.65 32.14C154.62 13.52 155.59 5.90998 154.95 4.24998Z" fill="black"/>
<path d="M146.41 80.6C145.46 80.6 144.59 80.37 143.8 79.9C138.17 76.6 141.33 62.91 142.42 58.79C142.72 57.66 143.89 56.99 145.02 57.29C146.15 57.59 146.82 58.75 146.52 59.89C144.7 66.71 144.07 75.15 145.94 76.25C146.03 76.3 148.2 77.44 156.03 69.83C156.87 69.01 158.21 69.03 159.03 69.87C159.85 70.71 159.83 72.05 158.99 72.87C153.64 78.07 149.55 80.6 146.41 80.6Z" fill="black"/>
<path d="M158.66 73.85C157.81 73.85 156.95 73.64 156.21 73.06C154.82 71.97 154.43 70.05 155.03 67.37C157.79 55.03 168.46 44.6 173.65 42.23C175.34 41.46 176.68 41.37 177.77 41.95C178.8 42.51 179.19 43.79 178.63 44.82C178.13 45.74 177.05 46.15 176.09 45.83C173.32 46.25 161.93 55.96 159.17 68.29C159.03 68.93 158.99 69.35 158.99 69.61C161.79 69.35 169.43 63.16 175.04 57.63C176 54.3 177.73 51.03 179.16 49.08C179.82 48.18 181.57 45.81 183.76 46.51C184.48 46.74 185.69 47.48 185.71 49.8C185.73 51.88 182.78 55.77 178.85 59.8C178.81 59.96 178.78 60.12 178.75 60.28C178.45 61.81 178.47 63.08 178.81 63.74C179.36 63.66 180.88 63.06 183.54 60.79C185.94 58.74 188.24 56.31 190.19 53.95C190.34 53.25 190.56 52.49 190.82 51.69C190.85 51.59 194.15 41.85 197.82 41.96C198.92 42 199.83 42.75 200.13 43.89C200.77 46.32 197.93 51.15 194.12 55.83C194.05 56.36 194.05 56.79 194.15 57.09C194.7 57.09 196.89 56.7 202.77 52.07C203.69 51.35 205.02 51.5 205.75 52.42C206.48 53.34 206.32 54.68 205.4 55.4C198.51 60.83 194.28 62.43 191.67 60.59C191.31 60.33 191 60.03 190.75 59.68C187.44 63.18 183.96 66.12 181.58 67.24C177.85 68.98 176.05 67.2 175.45 66.35C174.96 65.66 174.65 64.86 174.48 63.98C170.23 67.8 165.72 71.2 162.77 72.65C162.06 73 160.37 73.83 158.67 73.83L158.66 73.85Z" fill="black"/>
<path d="M211.59 57.25C210.62 57.25 209.77 56.98 209.01 56.46C204.81 53.6 207.17 42.19 210.98 30.64C199.14 36.67 186.9 41.04 184.51 41.88C183.41 42.27 182.19 41.68 181.81 40.58C181.42 39.47 182.01 38.26 183.11 37.88C189.68 35.58 202.39 30.53 213.05 24.69C215.32 18.48 217.76 12.66 219.53 8.61C219.81 7.97 220.38 7.52 221.06 7.38C221.75 7.24 222.44 7.45 222.94 7.93C226.87 11.7 231.22 9.37 231.4 9.27C232.18 8.84 233.16 8.94 233.83 9.53C234.5 10.12 234.74 11.06 234.41 11.9C232.25 17.38 224.96 22.88 216.56 27.65C211.83 41.05 209.49 51.68 211.38 52.97C211.4 52.99 213.8 53.87 223.48 44.19C224.31 43.36 225.65 43.36 226.48 44.19C227.31 45.02 227.31 46.36 226.48 47.19C219.62 54.06 214.93 57.26 211.57 57.26L211.59 57.25ZM222.36 12.78C221.15 15.64 220 18.47 218.94 21.24C222.55 18.95 225.65 16.6 227.79 14.31C226.07 14.27 224.2 13.86 222.36 12.78Z" fill="black"/>
<path d="M146.64 59.31C146.4 59.31 146.15 59.3 145.91 59.27C144.74 59.15 143.9 58.1 144.02 56.94C144.14 55.77 145.17 54.93 146.35 55.05C150.77 55.51 158.24 46.46 160.61 40.54C161.05 39.45 162.28 38.92 163.37 39.36C164.46 39.8 164.99 41.03 164.55 42.12C162.07 48.31 153.88 59.31 146.63 59.31H146.64Z" fill="black"/>
<path d="M233.84 50.59C231.81 50.59 230.17 48.94 230.17 46.92C230.17 44.9 231.82 43.25 233.84 43.25C235.86 43.25 237.51 44.9 237.51 46.92C237.51 48.94 235.86 50.59 233.84 50.59Z" fill="#050404"/>
<path d="M121.35 50.39C119.32 50.39 117.68 48.74 117.68 46.72C117.68 44.7 119.33 43.05 121.35 43.05C123.37 43.05 125.02 44.7 125.02 46.72C125.02 48.74 123.37 50.39 121.35 50.39Z" fill="#050404"/>
</g>
<defs>
<clipPath id="clip0_66_467">
<rect width="247.54" height="151.9" fill="white"/>
</clipPath>
</defs>
</svg>
