<svg width="32" height="32" viewBox="0 0 32 32" fill="none" xmlns="http://www.w3.org/2000/svg">
<g clip-path="url(#clip0_29_86)">
<path d="M30.9311 21.7531C34.108 13.5071 29.9987 4.24697 21.7527 1.07006C13.5067 -2.10686 4.24654 2.00246 1.06963 10.2485C-2.10728 18.4945 2.00204 27.7546 10.248 30.9315C18.4941 34.1084 27.7542 29.9991 30.9311 21.7531Z" fill="black"/>
<path d="M25.8457 9.89404C25.1216 10.2155 24.3428 10.4325 23.5258 10.5302C24.3604 10.0299 25.0004 9.23932 25.3014 8.29535C24.5216 8.75854 23.6558 9.0947 22.7363 9.27548C21.9995 8.49079 20.95 8.00024 19.7881 8.00024C17.5572 8.00024 15.7484 9.80902 15.7484 12.039C15.7484 12.3556 15.7846 12.6634 15.853 12.9595C12.4953 12.7914 9.51882 11.1829 7.52633 8.739C7.17845 9.33508 6.9791 10.0299 6.9791 10.7696C6.9791 12.1709 7.69245 13.407 8.77615 14.1321C8.11362 14.1116 7.49018 13.9288 6.94588 13.6269C6.94588 13.6435 6.94588 13.6611 6.94588 13.6777C6.94588 15.636 8.33837 17.2669 10.1862 17.6383C9.84618 17.7301 9.49048 17.7799 9.12208 17.7799C8.86117 17.7799 8.60808 17.7545 8.36183 17.7076C8.87583 19.3122 10.368 20.4809 12.1348 20.5131C10.752 21.5959 9.01068 22.2418 7.11787 22.2418C6.79148 22.2418 6.46999 22.2232 6.15436 22.1851C7.94164 23.3314 10.066 23.9998 12.3468 23.9998C19.7764 23.9998 23.8395 17.8444 23.8395 12.507C23.8395 12.3321 23.8346 12.1572 23.8278 11.9842C24.6193 11.4155 25.3033 10.7041 25.8447 9.89404" fill="white"/>
</g>
<defs>
<clipPath id="clip0_29_86">
<rect width="32" height="32" fill="white"/>
</clipPath>
</defs>
</svg>
